<svg width="52" height="749" viewBox="0 0 52 749" fill="none" xmlns="http://www.w3.org/2000/svg">
<path d="M8 337.8L8 316.2H36V323.36H14.92L14.92 330.64H36V337.8H8ZM8 311.284L8 300.404C8 297.578 8.92 295.204 10.76 293.284C12.6 291.364 14.9467 290.404 17.8 290.404C20.6533 290.404 23 291.364 24.84 293.284C26.68 295.204 27.6 297.578 27.6 300.404V304.124H36L36 311.284H8ZM20.8 304.124V300.404C20.8 299.604 20.52 298.938 19.96 298.404C19.4 297.844 18.68 297.564 17.8 297.564C16.92 297.564 16.2133 297.844 15.68 298.404C15.12 298.938 14.84 299.604 14.84 300.404L14.84 304.124H20.8ZM32.4 263.152C35.2 266.005 36.6 269.472 36.6 273.552C36.6 277.685 35.2 281.165 32.4 283.992C29.5733 286.818 26.1067 288.232 22 288.232C17.8933 288.232 14.44 286.818 11.64 283.992C8.81333 281.165 7.4 277.685 7.4 273.552C7.4 269.445 8.81333 265.978 11.64 263.152C14.44 260.298 17.8933 258.872 22 258.872C26.08 258.872 29.5467 260.298 32.4 263.152ZM27.48 278.952C28.8933 277.485 29.6 275.685 29.6 273.552C29.6 271.418 28.8933 269.618 27.48 268.152C26.04 266.712 24.2133 265.992 22 265.992C19.76 265.992 17.9467 266.712 16.56 268.152C15.12 269.592 14.4 271.392 14.4 273.552C14.4 275.712 15.12 277.512 16.56 278.952C17.9467 280.392 19.76 281.112 22 281.112C24.2133 281.112 26.04 280.392 27.48 278.952ZM36 232.49L36 239.61H21.92L36 249.49V255.05H8L8 247.89H22.08L8 238.01L8 232.49H36ZM21.56 212.188C22.9467 209.682 25.1333 208.428 28.12 208.428C30.6533 208.428 32.7067 209.388 34.28 211.308C35.8267 213.202 36.6 215.735 36.6 218.908C36.6 224.322 34.4133 227.935 30.04 229.748L26.52 223.628C28.7333 222.828 29.84 221.255 29.84 218.908C29.84 216.695 29.0133 215.588 27.36 215.588C25.92 215.588 25.12 216.482 24.96 218.268L24.92 222.508H18.72V219.748C18.72 217.588 17.9467 216.508 16.4 216.508C14.8533 216.508 14.08 217.468 14.08 219.388C14.08 221.282 15.0267 222.615 16.92 223.388L13.44 229.388C11.52 228.508 10.04 227.202 9 225.468C7.93333 223.708 7.4 221.642 7.4 219.268C7.4 216.308 8.17333 213.922 9.72 212.108C11.24 210.268 13.2667 209.348 15.8 209.348C18.2267 209.348 20.1467 210.295 21.56 212.188ZM21.52 187.386C22.9067 185.039 25 183.866 27.8 183.866C30.3067 183.866 32.2933 184.719 33.76 186.426C35.2533 188.159 36 190.439 36 193.266V205.066H8L8 194.026C8 191.199 8.72 188.959 10.16 187.306C11.5733 185.626 13.5067 184.786 15.96 184.786C18.3067 184.786 20.16 185.652 21.52 187.386ZM14.4 194.226L14.4 197.906H18.8L18.8 194.226C18.8 193.559 18.6133 193.012 18.24 192.586C17.84 192.159 17.2933 191.946 16.6 191.946C15.9333 191.946 15.4 192.159 15 192.586C14.6 193.012 14.4 193.559 14.4 194.226ZM29.6 197.906L29.6 193.466C29.6 192.746 29.3867 192.159 28.96 191.706C28.5067 191.252 27.9333 191.026 27.24 191.026C26.52 191.026 25.9467 191.252 25.52 191.706C25.0933 192.159 24.88 192.746 24.88 193.466L24.88 197.906H29.6ZM32.4 156.503C35.2 159.356 36.6 162.823 36.6 166.903C36.6 171.036 35.2 174.516 32.4 177.343C29.5733 180.17 26.1067 181.583 22 181.583C17.8933 181.583 14.44 180.17 11.64 177.343C8.81333 174.516 7.4 171.036 7.4 166.903C7.4 162.796 8.81333 159.33 11.64 156.503C14.44 153.65 17.8933 152.223 22 152.223C26.08 152.223 29.5467 153.65 32.4 156.503ZM27.48 172.303C28.8933 170.836 29.6 169.036 29.6 166.903C29.6 164.77 28.8933 162.97 27.48 161.503C26.04 160.063 24.2133 159.343 22 159.343C19.76 159.343 17.9467 160.063 16.56 161.503C15.12 162.943 14.4 164.743 14.4 166.903C14.4 169.063 15.12 170.863 16.56 172.303C17.9467 173.743 19.76 174.463 22 174.463C24.2133 174.463 26.04 173.743 27.48 172.303ZM8 127.052H29.08L29.08 124.052H41.36V131.172H36L36 144.252H41.36V151.412H29.08V148.452C27.0267 147.172 24.0667 146.533 20.2 146.533H8L8 127.052ZM29.08 141.012L29.08 134.172H14.64L14.64 139.412H20.28C24.04 139.412 26.9733 139.946 29.08 141.012ZM36 98.0759V105.196H21.92L36 115.076L36 120.636H8L8 113.476H22.08L8 103.596L8 98.0759H36ZM8 94.9437L8 73.9437H14.92L14.92 80.8637H36V88.0237H14.92L14.92 94.9437H8ZM25.16 63.6869H29.28L29.28 52.8469H36V70.8469H8L8 53.0469H14.68L14.68 63.6869H18.56L18.56 54.0469H25.16L25.16 63.6869ZM36 50.9406H29.32C29.5067 49.394 29.28 48.3006 28.64 47.6606C27.9733 46.994 26.68 46.6606 24.76 46.6606H8L8 26.7406H36V33.9006H14.92L14.92 39.5006H25.08C29.6933 39.5006 32.8 40.7273 34.4 43.1806C35.7867 45.2873 36.32 47.874 36 50.9406ZM16.4 14.6791V10.9591C16.4 8.13239 17.32 5.75906 19.16 3.83906C21 1.91906 23.3467 0.959062 26.2 0.959062C29.0533 0.959062 31.4 1.91906 33.24 3.83906C35.08 5.75906 36 8.13239 36 10.9591V21.8391H8L8 14.6791H16.4ZM29.16 14.6791V10.9591C29.16 10.1591 28.8933 9.4924 28.36 8.95906C27.8 8.39906 27.08 8.11906 26.2 8.11906C25.32 8.11906 24.6 8.39906 24.04 8.95906C23.48 9.4924 23.2 10.1591 23.2 10.9591V14.6791H29.16Z" fill="#D9D9D9" fill-opacity="0.75"/>
<path d="M10 746.8L10 725.2H38V732.36H16.92L16.92 739.64H38V746.8H10ZM10 720.284L10 709.404C10 706.578 10.92 704.204 12.76 702.284C14.6 700.364 16.9467 699.404 19.8 699.404C22.6533 699.404 25 700.364 26.84 702.284C28.68 704.204 29.6 706.578 29.6 709.404V713.124H38L38 720.284H10ZM22.8 713.124V709.404C22.8 708.604 22.52 707.938 21.96 707.404C21.4 706.844 20.68 706.564 19.8 706.564C18.92 706.564 18.2133 706.844 17.68 707.404C17.12 707.938 16.84 708.604 16.84 709.404L16.84 713.124H22.8ZM34.4 672.152C37.2 675.005 38.6 678.472 38.6 682.552C38.6 686.685 37.2 690.165 34.4 692.992C31.5733 695.818 28.1067 697.232 24 697.232C19.8933 697.232 16.44 695.818 13.64 692.992C10.8133 690.165 9.4 686.685 9.4 682.552C9.4 678.445 10.8133 674.978 13.64 672.152C16.44 669.298 19.8933 667.872 24 667.872C28.08 667.872 31.5467 669.298 34.4 672.152ZM29.48 687.952C30.8933 686.485 31.6 684.685 31.6 682.552C31.6 680.418 30.8933 678.618 29.48 677.152C28.04 675.712 26.2133 674.992 24 674.992C21.76 674.992 19.9467 675.712 18.56 677.152C17.12 678.592 16.4 680.392 16.4 682.552C16.4 684.712 17.12 686.512 18.56 687.952C19.9467 689.392 21.76 690.112 24 690.112C26.2133 690.112 28.04 689.392 29.48 687.952ZM38 641.49L38 648.61H23.92L38 658.49V664.05H10L10 656.89H24.08L10 647.01V641.49H38ZM23.56 621.188C24.9467 618.682 27.1333 617.428 30.12 617.428C32.6533 617.428 34.7067 618.388 36.28 620.308C37.8267 622.202 38.6 624.735 38.6 627.908C38.6 633.322 36.4133 636.935 32.04 638.748L28.52 632.628C30.7333 631.828 31.84 630.255 31.84 627.908C31.84 625.695 31.0133 624.588 29.36 624.588C27.92 624.588 27.12 625.482 26.96 627.268L26.92 631.508H20.72V628.748C20.72 626.588 19.9467 625.508 18.4 625.508C16.8533 625.508 16.08 626.468 16.08 628.388C16.08 630.282 17.0267 631.615 18.92 632.388L15.44 638.388C13.52 637.508 12.04 636.202 11 634.468C9.93333 632.708 9.4 630.642 9.4 628.268C9.4 625.308 10.1733 622.922 11.72 621.108C13.24 619.268 15.2667 618.348 17.8 618.348C20.2267 618.348 22.1467 619.295 23.56 621.188ZM23.52 596.386C24.9067 594.039 27 592.866 29.8 592.866C32.3067 592.866 34.2933 593.719 35.76 595.426C37.2533 597.159 38 599.439 38 602.266V614.066H10L10 603.026C10 600.199 10.72 597.959 12.16 596.306C13.5733 594.626 15.5067 593.786 17.96 593.786C20.3067 593.786 22.16 594.652 23.52 596.386ZM16.4 603.226V606.906H20.8L20.8 603.226C20.8 602.559 20.6133 602.012 20.24 601.586C19.84 601.159 19.2933 600.946 18.6 600.946C17.9333 600.946 17.4 601.159 17 601.586C16.6 602.012 16.4 602.559 16.4 603.226ZM31.6 606.906L31.6 602.466C31.6 601.746 31.3867 601.159 30.96 600.706C30.5067 600.252 29.9333 600.026 29.24 600.026C28.52 600.026 27.9467 600.252 27.52 600.706C27.0933 601.159 26.88 601.746 26.88 602.466L26.88 606.906H31.6ZM34.4 565.503C37.2 568.356 38.6 571.823 38.6 575.903C38.6 580.036 37.2 583.516 34.4 586.343C31.5733 589.17 28.1067 590.583 24 590.583C19.8933 590.583 16.44 589.17 13.64 586.343C10.8133 583.516 9.4 580.036 9.4 575.903C9.4 571.796 10.8133 568.33 13.64 565.503C16.44 562.65 19.8933 561.223 24 561.223C28.08 561.223 31.5467 562.65 34.4 565.503ZM29.48 581.303C30.8933 579.836 31.6 578.036 31.6 575.903C31.6 573.77 30.8933 571.97 29.48 570.503C28.04 569.063 26.2133 568.343 24 568.343C21.76 568.343 19.9467 569.063 18.56 570.503C17.12 571.943 16.4 573.743 16.4 575.903C16.4 578.063 17.12 579.863 18.56 581.303C19.9467 582.743 21.76 583.463 24 583.463C26.2133 583.463 28.04 582.743 29.48 581.303ZM10 536.052H31.08L31.08 533.052H43.36V540.172H38L38 553.252H43.36V560.412H31.08V557.452C29.0267 556.172 26.0667 555.533 22.2 555.533H10L10 536.052ZM31.08 550.012L31.08 543.172H16.64L16.64 548.412H22.28C26.04 548.412 28.9733 548.946 31.08 550.012ZM38 507.076V514.196H23.92L38 524.076L38 529.636H10L10 522.476H24.08L10 512.596L10 507.076H38ZM10 503.944L10 482.944H16.92L16.92 489.864H38V497.024H16.92L16.92 503.944H10ZM27.16 472.687H31.28L31.28 461.847H38V479.847H10L10 462.047H16.68V472.687H20.56L20.56 463.047H27.16L27.16 472.687ZM38 459.941H31.32C31.5067 458.394 31.28 457.301 30.64 456.661C29.9733 455.994 28.68 455.661 26.76 455.661H10L10 435.741H38V442.901H16.92V448.501H27.08C31.6933 448.501 34.8 449.727 36.4 452.181C37.7867 454.287 38.32 456.874 38 459.941ZM18.4 423.679V419.959C18.4 417.132 19.32 414.759 21.16 412.839C23 410.919 25.3467 409.959 28.2 409.959C31.0533 409.959 33.4 410.919 35.24 412.839C37.08 414.759 38 417.132 38 419.959V430.839H10L10 423.679H18.4ZM31.16 423.679V419.959C31.16 419.159 30.8933 418.492 30.36 417.959C29.8 417.399 29.08 417.119 28.2 417.119C27.32 417.119 26.6 417.399 26.04 417.959C25.48 418.492 25.2 419.159 25.2 419.959V423.679H31.16Z" fill="#D9D9D9" fill-opacity="0.75"/>
<path d="M25 362L26.7961 367.528H32.6085L27.9062 370.944L29.7023 376.472L25 373.056L20.2977 376.472L22.0938 370.944L17.3915 367.528H23.2039L25 362Z" fill="#D9D9D9" fill-opacity="0.75"/>
</svg>
