<svg width="47" height="48" viewBox="0 0 47 48" fill="none" xmlns="http://www.w3.org/2000/svg">
<path d="M15.4892 11.9393C14.6954 11.9393 14.0371 11.281 14.0371 10.4871V4.67868C14.0371 3.88486 14.6954 3.22656 15.4892 3.22656C16.283 3.22656 16.9413 3.88486 16.9413 4.67868V10.4871C16.9413 11.281 16.283 11.9393 15.4892 11.9393Z" fill="#D9D9D9"/>
<path d="M30.9795 11.9393C30.1856 11.9393 29.5273 11.281 29.5273 10.4871V4.67868C29.5273 3.88486 30.1856 3.22656 30.9795 3.22656C31.7733 3.22656 32.4316 3.88486 32.4316 4.67868V10.4871C32.4316 11.281 31.7733 11.9393 30.9795 11.9393Z" fill="#D9D9D9"/>
<path d="M16.4576 28.8813C15.9542 28.8813 15.4508 28.6683 15.083 28.3198C14.7345 27.9519 14.5215 27.4679 14.5215 26.9451C14.5215 26.6934 14.5796 26.4417 14.6764 26.2094C14.7732 25.9771 14.9087 25.7641 15.083 25.5705C15.7993 24.8541 17.0966 24.8541 17.8323 25.5705C18.1808 25.9384 18.3938 26.4417 18.3938 26.9451C18.3938 27.0613 18.3744 27.1969 18.3551 27.3324C18.3357 27.4486 18.297 27.5647 18.2389 27.6809C18.2002 27.7971 18.1421 27.9132 18.0647 28.0294C17.9872 28.1262 17.9098 28.223 17.8323 28.3198C17.4644 28.6683 16.961 28.8813 16.4576 28.8813Z" fill="#D9D9D9"/>
<path d="M23.233 28.8811C22.9813 28.8811 22.7296 28.823 22.4973 28.7262C22.2456 28.6294 22.052 28.4939 21.8584 28.3196C21.5099 27.9517 21.2969 27.4677 21.2969 26.9449C21.2969 26.6932 21.355 26.4415 21.4518 26.2092C21.5486 25.9769 21.6841 25.7639 21.8584 25.5703C22.052 25.396 22.2456 25.2605 22.4973 25.1637C23.2137 24.8732 24.0656 25.0282 24.6077 25.5703C24.9562 25.9382 25.1692 26.4415 25.1692 26.9449C25.1692 27.0611 25.1498 27.1967 25.1305 27.3322C25.1111 27.4484 25.0724 27.5645 25.0143 27.6807C24.9756 27.7969 24.9175 27.913 24.84 28.0292C24.782 28.126 24.6851 28.2228 24.6077 28.3196C24.2398 28.6681 23.7364 28.8811 23.233 28.8811Z" fill="#D9D9D9"/>
<path d="M16.4576 35.6571C16.2059 35.6571 15.9542 35.5991 15.7219 35.5022C15.4702 35.4054 15.2572 35.2699 15.083 35.0956C14.9087 34.9214 14.7732 34.7084 14.6764 34.4567C14.5796 34.2244 14.5215 33.9727 14.5215 33.721C14.5215 33.4693 14.5796 33.2175 14.6764 32.9852C14.7732 32.7335 14.9087 32.5206 15.083 32.3463C15.2572 32.172 15.4702 32.0365 15.7219 31.9397C16.1866 31.7461 16.7287 31.7267 17.1934 31.9397C17.4451 32.0365 17.6581 32.172 17.8323 32.3463C18.0066 32.5206 18.1421 32.7335 18.2389 32.9852C18.3357 33.2175 18.3938 33.4693 18.3938 33.721C18.3938 33.9727 18.3357 34.2244 18.2389 34.4567C18.1421 34.7084 18.0066 34.9214 17.8323 35.0956C17.6581 35.2699 17.4451 35.4054 17.1934 35.5022C16.961 35.5991 16.7093 35.6571 16.4576 35.6571Z" fill="#D9D9D9"/>
<path d="M39.691 19.8593H6.77634C5.98251 19.8593 5.32422 19.201 5.32422 18.4072C5.32422 17.6134 5.98251 16.9551 6.77634 16.9551H39.691C40.4848 16.9551 41.1431 17.6134 41.1431 18.4072C41.1431 19.201 40.4848 19.8593 39.691 19.8593Z" fill="#D9D9D9"/>
<path d="M34.851 46.79C32.5857 46.79 30.4366 45.9768 28.7909 44.4859C28.0939 43.9051 27.4743 43.1694 26.9709 42.3174C26.119 40.9234 25.6543 39.2777 25.6543 37.5932C25.6543 32.5205 29.7783 28.3965 34.851 28.3965C37.4842 28.3965 40.0012 29.5388 41.7437 31.5137C43.2346 33.2175 44.0478 35.3666 44.0478 37.5932C44.0478 39.2777 43.5831 40.9234 42.7118 42.3368C41.0855 45.0862 38.0651 46.79 34.851 46.79ZM34.851 31.3007C31.3853 31.3007 28.5585 34.1275 28.5585 37.5932C28.5585 38.7356 28.8683 39.8586 29.4685 40.8266C29.7977 41.4075 30.2236 41.8915 30.6883 42.2981C31.85 43.3436 33.3021 43.8857 34.851 43.8857C37.0776 43.8857 39.0912 42.7434 40.2335 40.846C40.8338 39.8585 41.1435 38.7549 41.1435 37.5932C41.1435 36.083 40.5821 34.6116 39.5753 33.4305C38.3748 32.0752 36.6517 31.3007 34.851 31.3007Z" fill="#D9D9D9"/>
<path d="M33.7469 40.9628C33.379 40.9628 33.0111 40.8272 32.7207 40.5368L30.8039 38.62C30.2424 38.0585 30.2424 37.1292 30.8039 36.5677C31.3654 36.0062 32.2948 36.0062 32.8562 36.5677L33.7856 37.4971L36.8835 34.6316C37.4643 34.0894 38.3937 34.1282 38.9358 34.709C39.4779 35.2899 39.4392 36.2192 38.8583 36.7613L34.7343 40.5756C34.4439 40.8273 34.0954 40.9628 33.7469 40.9628Z" fill="#D9D9D9"/>
<path d="M29.7578 44.854H15.4884C8.42139 44.854 4.35547 40.788 4.35547 33.7211V17.2638C4.35547 10.1968 8.42139 6.13086 15.4884 6.13086H30.9776C38.0446 6.13086 42.1105 10.1968 42.1105 17.2638V32.4819C42.1105 33.0821 41.7426 33.6243 41.1618 33.8372C40.6003 34.0502 39.9614 33.8953 39.5548 33.4307C38.3544 32.0754 36.6312 31.3009 34.8306 31.3009C31.3648 31.3009 28.538 34.1277 28.538 37.5934C28.538 38.7357 28.8478 39.8587 29.448 40.8268C29.7772 41.4076 30.2031 41.8916 30.6678 42.2982C31.1325 42.6855 31.3067 43.3244 31.0938 43.9053C30.9195 44.4668 30.3774 44.854 29.7578 44.854ZM15.4884 9.03509C9.95096 9.03509 7.2597 11.7263 7.2597 17.2638V33.7211C7.2597 39.2585 9.95096 41.9497 15.4884 41.9497H26.7568C26.0404 40.6332 25.6532 39.1423 25.6532 37.5934C25.6532 32.5207 29.7772 28.3966 34.8499 28.3966C36.3795 28.3966 37.8897 28.7839 39.2063 29.5003V17.2638C39.2063 11.7263 36.515 9.03509 30.9776 9.03509H15.4884Z" fill="#D9D9D9"/>
</svg>
