<svg width="38" height="38" viewBox="0 0 38 38" fill="none" xmlns="http://www.w3.org/2000/svg">
<path d="M23.4375 35.5469H14.0625C5.57813 35.5469 1.95312 31.9219 1.95312 23.4375V14.0625C1.95312 5.57813 5.57813 1.95312 14.0625 1.95312H21.875C22.5156 1.95312 23.0469 2.48438 23.0469 3.125C23.0469 3.76562 22.5156 4.29688 21.875 4.29688H14.0625C6.85937 4.29688 4.29688 6.85937 4.29688 14.0625V23.4375C4.29688 30.6406 6.85937 33.2031 14.0625 33.2031H23.4375C30.6406 33.2031 33.2031 30.6406 33.2031 23.4375V15.625C33.2031 14.9844 33.7344 14.4531 34.375 14.4531C35.0156 14.4531 35.5469 14.9844 35.5469 15.625V23.4375C35.5469 31.9219 31.9219 35.5469 23.4375 35.5469Z" fill="#1560BD"/>
<path d="M34.375 16.7969H28.125C22.7813 16.7969 20.7031 14.7188 20.7031 9.37501V3.12501C20.7031 2.65626 20.9844 2.21876 21.4219 2.04689C21.8594 1.85939 22.3594 1.96876 22.7031 2.29689L35.2031 14.7969C35.5313 15.125 35.6406 15.6406 35.4531 16.0781C35.2656 16.5156 34.8438 16.7969 34.375 16.7969ZM23.0469 5.95314V9.37501C23.0469 13.4063 24.0938 14.4531 28.125 14.4531H31.5469L23.0469 5.95314Z" fill="#1560BD"/>
<path d="M20.3125 21.4844H10.9375C10.2969 21.4844 9.76562 20.9531 9.76562 20.3125C9.76562 19.6719 10.2969 19.1406 10.9375 19.1406H20.3125C20.9531 19.1406 21.4844 19.6719 21.4844 20.3125C21.4844 20.9531 20.9531 21.4844 20.3125 21.4844Z" fill="#1560BD"/>
<path d="M17.1875 27.7344H10.9375C10.2969 27.7344 9.76562 27.2031 9.76562 26.5625C9.76562 25.9219 10.2969 25.3906 10.9375 25.3906H17.1875C17.8281 25.3906 18.3594 25.9219 18.3594 26.5625C18.3594 27.2031 17.8281 27.7344 17.1875 27.7344Z" fill="#1560BD"/>
</svg>
