<svg width="38" height="37" viewBox="0 0 38 37" fill="none" xmlns="http://www.w3.org/2000/svg">
<path d="M19 25.1753C15.2656 25.1753 12.2344 22.1845 12.2344 18.4999C12.2344 14.8153 15.2656 11.8245 19 11.8245C22.7344 11.8245 25.7656 14.8153 25.7656 18.4999C25.7656 22.1845 22.7344 25.1753 19 25.1753ZM19 14.137C16.5625 14.137 14.5781 16.0949 14.5781 18.4999C14.5781 20.9049 16.5625 22.8628 19 22.8628C21.4375 22.8628 23.4219 20.9049 23.4219 18.4999C23.4219 16.0949 21.4375 14.137 19 14.137Z" fill="#494949"/>
<path d="M19 32.4059C13.125 32.4059 7.57812 29.0142 3.76562 23.1251C2.10938 20.5813 2.10938 16.4342 3.76562 13.8751C7.59375 7.9859 13.1406 4.59424 19 4.59424C24.8594 4.59424 30.4062 7.9859 34.2188 13.8751C35.875 16.4188 35.875 20.5659 34.2188 23.1251C30.4062 29.0142 24.8594 32.4059 19 32.4059ZM19 6.90674C13.9531 6.90674 9.125 9.89757 5.75 15.1238C4.57812 16.9276 4.57812 20.0726 5.75 21.8763C9.125 27.1026 13.9531 30.0934 19 30.0934C24.0469 30.0934 28.875 27.1026 32.25 21.8763C33.4219 20.0726 33.4219 16.9276 32.25 15.1238C28.875 9.89757 24.0469 6.90674 19 6.90674Z" fill="#494949"/>
</svg>
