<svg width="88" height="89" viewBox="0 0 88 89" fill="none" xmlns="http://www.w3.org/2000/svg">
<path d="M33.1562 39.6426C27.5988 39.6426 23.1016 35.1454 23.1016 29.5879C23.1016 24.0304 27.5988 19.5332 33.1562 19.5332C38.7137 19.5332 43.2109 24.0304 43.2109 29.5879C43.2109 35.1454 38.7137 39.6426 33.1562 39.6426ZM33.1562 25.0176C30.6334 25.0176 28.5859 27.0651 28.5859 29.5879C28.5859 32.1107 30.6334 34.1582 33.1562 34.1582C35.6791 34.1582 37.7266 32.1107 37.7266 29.5879C37.7266 27.0651 35.6791 25.0176 33.1562 25.0176Z" fill="#D9D9D9"/>
<path d="M55.0938 83.5176H33.1562C13.3028 83.5176 4.82031 75.0351 4.82031 55.1816V33.2441C4.82031 13.3907 13.3028 4.9082 33.1562 4.9082H47.7812C49.2803 4.9082 50.5234 6.15133 50.5234 7.65039C50.5234 9.14945 49.2803 10.3926 47.7812 10.3926H33.1562C16.3009 10.3926 10.3047 16.3888 10.3047 33.2441V55.1816C10.3047 72.037 16.3009 78.0332 33.1562 78.0332H55.0938C71.9491 78.0332 77.9453 72.037 77.9453 55.1816V36.9004C77.9453 35.4013 79.1884 34.1582 80.6875 34.1582C82.1866 34.1582 83.4297 35.4013 83.4297 36.9004V55.1816C83.4297 75.0351 74.9472 83.5176 55.0938 83.5176Z" fill="#D9D9D9"/>
<path d="M77.9453 21.3613H57.8359C56.3369 21.3613 55.0938 20.1182 55.0938 18.6191C55.0938 17.1201 56.3369 15.877 57.8359 15.877H77.9453C79.4444 15.877 80.6875 17.1201 80.6875 18.6191C80.6875 20.1182 79.4444 21.3613 77.9453 21.3613Z" fill="#D9D9D9"/>
<path d="M67.8906 31.416C66.3916 31.416 65.1484 30.1729 65.1484 28.6738V8.56445C65.1484 7.06539 66.3916 5.82227 67.8906 5.82227C69.3897 5.82227 70.6328 7.06539 70.6328 8.56445V28.6738C70.6328 30.1729 69.3897 31.416 67.8906 31.416Z" fill="#D9D9D9"/>
<path d="M10.0121 72.3654C9.13463 72.3654 8.25713 71.9266 7.74525 71.1588C6.90432 69.9157 7.23338 68.1973 8.4765 67.3563L26.5018 55.2541C30.4506 52.6216 35.8984 52.9141 39.4815 55.9488L40.6881 57.0091C42.5162 58.5813 45.624 58.5813 47.4156 57.0091L62.6256 43.9563C66.5377 40.6291 72.6071 40.6291 76.5193 43.9563L82.479 49.0751C83.6124 50.0623 83.7587 51.7807 82.7715 52.9507C81.7843 54.0841 80.0659 54.2304 78.8959 53.2432L72.9362 48.1245C71.1081 46.5523 68.0003 46.5523 66.2087 48.1245L50.9987 61.1773C47.1231 64.5045 41.0171 64.5045 37.1049 61.1773L35.8984 60.117C34.2165 58.691 31.4378 58.5448 29.5731 59.8245L11.5843 71.9266C11.0724 72.2191 10.524 72.3654 10.0121 72.3654Z" fill="#D9D9D9"/>
</svg>
