<svg width="88" height="89" viewBox="0 0 88 89" fill="none" xmlns="http://www.w3.org/2000/svg">
<path d="M33.1562 39.8047C27.5988 39.8047 23.1016 35.3075 23.1016 29.75C23.1016 24.1925 27.5988 19.6953 33.1562 19.6953C38.7137 19.6953 43.2109 24.1925 43.2109 29.75C43.2109 35.3075 38.7137 39.8047 33.1562 39.8047ZM33.1562 25.1797C30.6334 25.1797 28.5859 27.2272 28.5859 29.75C28.5859 32.2728 30.6334 34.3203 33.1562 34.3203C35.6791 34.3203 37.7266 32.2728 37.7266 29.75C37.7266 27.2272 35.6791 25.1797 33.1562 25.1797Z" fill="#D9D9D9"/>
<path d="M55.0938 83.6797H33.1562C13.3028 83.6797 4.82031 75.1972 4.82031 55.3438V33.4062C4.82031 13.5528 13.3028 5.07031 33.1562 5.07031H47.7812C49.2803 5.07031 50.5234 6.31344 50.5234 7.8125C50.5234 9.31156 49.2803 10.5547 47.7812 10.5547H33.1562C16.3009 10.5547 10.3047 16.5509 10.3047 33.4062V55.3438C10.3047 72.1991 16.3009 78.1953 33.1562 78.1953H55.0938C71.9491 78.1953 77.9453 72.1991 77.9453 55.3438V37.0625C77.9453 35.5634 79.1884 34.3203 80.6875 34.3203C82.1866 34.3203 83.4297 35.5634 83.4297 37.0625V55.3438C83.4297 75.1972 74.9472 83.6797 55.0938 83.6797Z" fill="#D9D9D9"/>
<path d="M77.9453 21.5234H57.8359C56.3369 21.5234 55.0938 20.2803 55.0938 18.7812C55.0938 17.2822 56.3369 16.0391 57.8359 16.0391H77.9453C79.4444 16.0391 80.6875 17.2822 80.6875 18.7812C80.6875 20.2803 79.4444 21.5234 77.9453 21.5234Z" fill="#D9D9D9"/>
<path d="M67.8906 31.5781C66.3916 31.5781 65.1484 30.335 65.1484 28.8359V8.72656C65.1484 7.2275 66.3916 5.98438 67.8906 5.98438C69.3897 5.98438 70.6328 7.2275 70.6328 8.72656V28.8359C70.6328 30.335 69.3897 31.5781 67.8906 31.5781Z" fill="#D9D9D9"/>
<path d="M10.0121 72.5281C9.13463 72.5281 8.25713 72.0894 7.74525 71.3216C6.90432 70.0784 7.23338 68.36 8.4765 67.5191L26.5018 55.4169C30.4506 52.7844 35.8984 53.0769 39.4815 56.1116L40.6881 57.1719C42.5162 58.7441 45.624 58.7441 47.4156 57.1719L62.6256 44.1191C66.5377 40.7919 72.6071 40.7919 76.5193 44.1191L82.479 49.2378C83.6124 50.225 83.7587 51.9434 82.7715 53.1134C81.7843 54.2469 80.0659 54.3931 78.8959 53.4059L72.9362 48.2872C71.1081 46.715 68.0003 46.715 66.2087 48.2872L50.9987 61.34C47.1231 64.6672 41.0171 64.6672 37.1049 61.34L35.8984 60.2797C34.2165 58.8538 31.4378 58.7075 29.5731 59.9872L11.5843 72.0894C11.0724 72.3819 10.524 72.5281 10.0121 72.5281Z" fill="#D9D9D9"/>
</svg>
