<svg width="38" height="39" viewBox="0 0 38 39" fill="none" xmlns="http://www.w3.org/2000/svg">
<path d="M18.75 26.1777C15.0156 26.1777 11.9844 23.1465 11.9844 19.4121C11.9844 15.6777 15.0156 12.6465 18.75 12.6465C22.4844 12.6465 25.5156 15.6777 25.5156 19.4121C25.5156 23.1465 22.4844 26.1777 18.75 26.1777ZM18.75 14.9902C16.3125 14.9902 14.3281 16.9746 14.3281 19.4121C14.3281 21.8496 16.3125 23.834 18.75 23.834C21.1875 23.834 23.1719 21.8496 23.1719 19.4121C23.1719 16.9746 21.1875 14.9902 18.75 14.9902Z" fill="#D9D9D9"/>
<path d="M18.75 33.5059C12.875 33.5059 7.32812 30.0684 3.51562 24.0996C1.85938 21.5215 1.85938 17.3184 3.51562 14.7246C7.34375 8.75586 12.8906 5.31836 18.75 5.31836C24.6094 5.31836 30.1562 8.75586 33.9688 14.7246C35.625 17.3027 35.625 21.5059 33.9688 24.0996C30.1562 30.0684 24.6094 33.5059 18.75 33.5059ZM18.75 7.66211C13.7031 7.66211 8.875 10.6934 5.5 15.9902C4.32812 17.8184 4.32812 21.0059 5.5 22.834C8.875 28.1309 13.7031 31.1621 18.75 31.1621C23.7969 31.1621 28.625 28.1309 32 22.834C33.1719 21.0059 33.1719 17.8184 32 15.9902C28.625 10.6934 23.7969 7.66211 18.75 7.66211Z" fill="#D9D9D9"/>
</svg>
