<svg width="38" height="38" viewBox="0 0 38 38" fill="none" xmlns="http://www.w3.org/2000/svg">
<path d="M22.2339 25.1716H19.1401C18.4214 25.1716 17.3745 24.9528 16.7651 24.3434L14.3589 22.4841L15.7964 20.6246L18.312 22.5778C18.4995 22.7184 18.8433 22.8122 19.1401 22.8122H22.2339C22.7026 22.8122 23.2651 22.4059 23.3745 21.9996L25.3433 15.9841C25.3901 15.8591 25.437 15.6871 25.3589 15.5621C25.2964 15.4684 25.1245 15.4059 24.9214 15.4059H21.6714C21.0933 15.4059 20.5464 15.156 20.1558 14.7185C19.7808 14.281 19.6089 13.6872 19.687 13.0935L20.0933 10.484C20.1401 10.2809 19.9995 10.0466 19.8276 9.9841C19.687 9.93723 19.4526 10.0153 19.3901 10.0934L16.062 15.0466L14.1089 13.7341L17.437 8.78095C18.0933 7.79657 19.4839 7.34341 20.6089 7.76529C21.8745 8.18716 22.687 9.59343 22.4058 10.9059L22.0776 13.0465H24.9214C25.9058 13.0465 26.7651 13.4684 27.2808 14.2028C27.7808 14.9215 27.8901 15.8434 27.5776 16.734L25.6401 22.6403C25.2808 24.0309 23.7808 25.1716 22.2339 25.1716Z" fill="#1560BD"/>
<path d="M13.375 24.2811H12.5625C10.125 24.2811 9.76562 22.578 9.76562 21.5624V13.6091C9.76562 12.5935 10.125 10.8904 12.5625 10.8904H13.375C15.8125 10.8904 16.1719 12.5935 16.1719 13.6091V21.5624C16.1719 22.578 15.8125 24.2811 13.375 24.2811ZM12.1562 21.9217C12.2031 21.9217 12.3281 21.9374 12.5625 21.9374H13.375C13.625 21.9374 13.7656 21.9061 13.8125 21.8904C13.8125 21.8592 13.8281 21.7655 13.8281 21.5624V13.6091C13.8281 13.406 13.8125 13.2967 13.7969 13.2654C13.7656 13.2654 13.6406 13.2498 13.375 13.2498H12.5625C12.3125 13.2498 12.1719 13.2811 12.125 13.2967C12.125 13.3279 12.1094 13.4216 12.1094 13.6248V21.578C12.1094 21.7811 12.125 21.8905 12.1406 21.9374C12.1406 21.9217 12.1562 21.9217 12.1562 21.9217Z" fill="#1560BD"/>
<path d="M18.75 35.5466C17.6563 35.5466 16.5469 35.1247 15.7187 34.2965L13.0469 31.656C12.375 30.9998 11.5 30.6403 10.5625 30.6403H9.375C6.14063 30.6403 3.51562 28.031 3.51562 24.8279V7.78096C3.51562 4.57784 6.14063 1.96851 9.375 1.96851H28.125C31.3594 1.96851 33.9844 4.57784 33.9844 7.78096V24.8279C33.9844 28.031 31.3594 30.6403 28.125 30.6403H26.9375C26 30.6403 25.1094 30.9998 24.4531 31.656L21.7813 34.2965C20.9531 35.1247 19.8437 35.5466 18.75 35.5466ZM9.375 4.29662C7.4375 4.29662 5.85938 5.85907 5.85938 7.76532V24.8122C5.85938 26.7341 7.4375 28.281 9.375 28.281H10.5625C12.125 28.281 13.5938 28.8903 14.7031 29.984L17.375 32.6247C18.1406 33.3747 19.375 33.3747 20.1406 32.6247L22.8125 29.984C23.9219 28.8903 25.3906 28.281 26.9531 28.281H28.125C30.0625 28.281 31.6406 26.7185 31.6406 24.8122V7.76532C31.6406 5.84344 30.0625 4.29662 28.125 4.29662H9.375Z" fill="#1560BD"/>
</svg>
