<svg width="38" height="39" viewBox="0 0 38 39" fill="none" xmlns="http://www.w3.org/2000/svg">
<path d="M25.4375 35.1514H19.5C18.625 35.1514 16.7188 34.8858 15.7031 33.8701L10.9687 30.2139L12.4062 28.3545L17.25 32.1045C17.6406 32.4795 18.625 32.792 19.5 32.792H25.4375C26.8438 32.792 28.3594 31.667 28.6719 30.4014L32.4531 18.917C32.7031 18.2295 32.6562 17.6045 32.3281 17.1514C31.9844 16.667 31.3594 16.3858 30.5937 16.3858H24.3437C23.5312 16.3858 22.7812 16.042 22.2656 15.4483C21.7344 14.8389 21.5 14.0264 21.625 13.1826L22.4062 8.16701C22.5938 7.29201 22 6.30763 21.1562 6.02638C20.3906 5.74513 19.4062 6.15138 19.0625 6.65138L12.6563 16.1826L10.7188 14.8858L17.125 5.35451C18.1094 3.88576 20.2656 3.18263 21.9531 3.82326C23.9062 4.46388 25.1562 6.62013 24.7187 8.62013L23.9531 13.542C23.9375 13.6514 23.9375 13.8076 24.0469 13.9326C24.125 14.0108 24.2344 14.0576 24.3594 14.0576H30.6094C32.1406 14.0576 33.4688 14.6983 34.25 15.8076C35.0156 16.8858 35.1719 18.3076 34.6719 19.6826L30.9375 31.0576C30.3594 33.3233 27.9531 35.1514 25.4375 35.1514Z" fill="#1560BD"/>
<path d="M8.40625 33.4326H6.84375C3.95312 33.4326 2.54688 32.0732 2.54688 29.292V13.9795C2.54688 11.1982 3.95312 9.83887 6.84375 9.83887H8.40625C11.2969 9.83887 12.7031 11.1982 12.7031 13.9795V29.292C12.7031 32.0732 11.2969 33.4326 8.40625 33.4326ZM6.84375 12.1826C5.14062 12.1826 4.89063 12.5889 4.89063 13.9795V29.292C4.89063 30.6826 5.14062 31.0889 6.84375 31.0889H8.40625C10.1094 31.0889 10.3594 30.6826 10.3594 29.292V13.9795C10.3594 12.5889 10.1094 12.1826 8.40625 12.1826H6.84375Z" fill="#1560BD"/>
</svg>
