<svg width="38" height="38" viewBox="0 0 38 38" fill="none" xmlns="http://www.w3.org/2000/svg">
<path d="M25.4375 34.5305H19.5C18.625 34.5305 16.7188 34.2649 15.7031 33.2493L10.9687 29.593L12.4062 27.7337L17.25 31.4837C17.6406 31.8587 18.625 32.1712 19.5 32.1712H25.4375C26.8438 32.1712 28.3594 31.0462 28.6719 29.7805L32.4531 18.2962C32.7031 17.6087 32.6562 16.9837 32.3281 16.5305C31.9844 16.0462 31.3594 15.7649 30.5937 15.7649H24.3437C23.5312 15.7649 22.7812 15.4212 22.2656 14.8274C21.7344 14.218 21.5 13.4055 21.625 12.5618L22.4062 7.54616C22.5938 6.67116 22 5.68678 21.1562 5.40553C20.3906 5.12428 19.4062 5.53053 19.0625 6.03053L12.6563 15.5618L10.7188 14.2649L17.125 4.73366C18.1094 3.26491 20.2656 2.56178 21.9531 3.20241C23.9062 3.84303 25.1562 5.99928 24.7187 7.99928L23.9531 12.9212C23.9375 13.0305 23.9375 13.1868 24.0469 13.3118C24.125 13.3899 24.2344 13.4368 24.3594 13.4368H30.6094C32.1406 13.4368 33.4688 14.0774 34.25 15.1868C35.0156 16.2649 35.1719 17.6868 34.6719 19.0618L30.9375 30.4368C30.3594 32.7024 27.9531 34.5305 25.4375 34.5305Z" fill="#1560BD"/>
<path d="M8.40625 32.8125H6.84375C3.95312 32.8125 2.54688 31.4531 2.54688 28.6719V13.3594C2.54688 10.5781 3.95312 9.21875 6.84375 9.21875H8.40625C11.2969 9.21875 12.7031 10.5781 12.7031 13.3594V28.6719C12.7031 31.4531 11.2969 32.8125 8.40625 32.8125ZM6.84375 11.5625C5.14062 11.5625 4.89063 11.9688 4.89063 13.3594V28.6719C4.89063 30.0625 5.14062 30.4688 6.84375 30.4688H8.40625C10.1094 30.4688 10.3594 30.0625 10.3594 28.6719V13.3594C10.3594 11.9688 10.1094 11.5625 8.40625 11.5625H6.84375Z" fill="#1560BD"/>
</svg>
