<svg width="207" height="19" viewBox="0 0 207 19" fill="none" xmlns="http://www.w3.org/2000/svg">
<path d="M9.93356 8.81256C10.7442 9.20947 11.3822 9.76335 11.8464 10.4729C12.3105 11.1838 12.5419 11.9929 12.5419 12.9016C12.5419 14.2902 12.0535 15.4554 11.0766 16.3972C10.0998 17.3391 8.90811 17.81 7.50035 17.81H0V0.457055H6.95438C8.32889 0.457055 9.47965 0.911393 10.4066 1.82007C11.3503 2.72875 11.8221 3.85311 11.8221 5.19188C11.8221 6.74506 11.193 7.9511 9.93483 8.81128L9.93356 8.81256ZM6.95311 2.61517H2.30918V7.92047H6.95311C7.68192 7.92047 8.29437 7.66395 8.79047 7.15218C9.28658 6.64041 9.53591 6.0125 9.53591 5.26845C9.53591 4.541 9.2789 3.92203 8.76618 3.40898C8.2688 2.88062 7.66529 2.61644 6.95311 2.61644V2.61517ZM2.30918 15.6544H7.50035C8.27903 15.6544 8.9324 15.3813 9.46175 14.8364C9.99109 14.2914 10.257 13.6214 10.257 12.8289C10.257 12.0516 9.98342 11.3905 9.43745 10.8456C8.92473 10.3006 8.27903 10.0275 7.50035 10.0275H2.30918V15.6544ZM17.5822 10.1271V15.6302H25.6541V17.8113H15.273V0.458332H25.5301V2.63942H17.5835V7.96896H24.91V10.1258H17.5835L17.5822 10.1271ZM42.6162 17.8113H40.1574L38.742 13.9188H30.9195L29.504 17.8113H27.0452L33.5278 0.458332H36.1362L42.6188 17.8113H42.6162ZM34.8179 3.21117L31.7135 11.7632H37.9467L34.8179 3.21117ZM43.9575 11.9865V0.459606H46.2667V11.887C46.2667 13.1262 46.6349 14.1013 47.3714 14.8121C48.1079 15.523 49.1474 15.8778 50.4886 15.8778C51.8299 15.8778 52.8681 15.523 53.6059 14.8121C54.3424 14.1013 54.7106 13.1262 54.7106 11.887V0.459606H56.9955V11.9865C56.9955 13.8703 56.3907 15.366 55.1824 16.4738C53.9742 17.5816 52.4091 18.1342 50.4886 18.1342C48.5515 18.1342 46.9788 17.5803 45.7693 16.4738C44.561 15.366 43.9562 13.8703 43.9562 11.9865H43.9575ZM59.1065 0.459606H71.6484V2.64069H66.5071V17.8113H64.2222V2.64069H59.1065V0.459606ZM84.2888 0.459606H86.8716L80.7125 10.7971V17.8126H78.4034V10.7728L72.2686 0.460883H74.8514L79.5695 8.59177L84.2875 0.460883L84.2888 0.459606ZM103.312 18.1342C100.663 18.1342 98.4853 17.2663 96.7809 15.5319C95.0752 13.8128 94.2224 11.6815 94.2224 9.13672C94.2224 6.59191 95.0752 4.45932 96.7809 2.74151C98.4865 1.00583 100.664 0.139274 103.312 0.139274C104.495 0.139274 105.612 0.353679 106.663 0.78377L101.697 2.52328C100.399 2.78363 99.2985 3.37708 98.3945 4.30362C97.1363 5.57603 96.5073 7.18791 96.5073 9.13799C96.5073 11.0715 97.1363 12.6744 98.3945 13.9468C99.6526 15.2358 101.292 15.8803 103.312 15.8803C104.504 15.8803 105.593 15.5957 106.578 15.0253C107.562 14.4548 108.304 13.6993 108.8 12.7574L110.811 13.8983C110.082 15.1873 109.048 16.2198 107.707 16.997C106.382 17.7577 104.917 18.1367 103.311 18.1367L103.312 18.1342ZM112.452 9.13544C112.452 6.62382 113.321 4.50016 115.059 2.76448C116.798 1.01221 118.925 0.136719 121.442 0.136719C123.958 0.136719 126.085 1.01221 127.824 2.76448C129.58 4.50016 130.457 6.62382 130.457 9.13544C130.457 11.6305 129.58 13.7541 127.824 15.5064C126.085 17.2587 123.958 18.1342 121.442 18.1342C118.925 18.1342 116.798 17.2587 115.059 15.5064C113.32 13.7375 112.452 11.6139 112.452 9.13544ZM128.148 9.13544C128.148 7.21854 127.502 5.61559 126.211 4.3266C124.953 3.02101 123.363 2.36885 121.443 2.36885C119.539 2.36885 117.941 3.02101 116.649 4.3266C115.374 5.63218 114.736 7.23513 114.736 9.13544C114.736 11.0192 115.374 12.6221 116.649 13.9443C117.941 15.2333 119.539 15.8778 121.443 15.8778C123.363 15.8778 124.953 15.2333 126.211 13.9443C127.502 12.6221 128.148 11.0192 128.148 9.13544ZM146.899 0.459606H149.506V17.8126H147.221V4.25257L141.534 13.6967H141.236L135.548 4.27682V17.8113H133.239V0.458332H135.846L141.384 9.63062L146.897 0.458332L146.899 0.459606ZM153.232 0.459606H159.54C161.13 0.459606 162.462 0.996901 163.539 2.07149C164.615 3.14608 165.154 4.46826 165.154 6.03803C165.154 7.60779 164.615 8.92997 163.539 10.0046C162.462 11.0791 161.13 11.6164 159.54 11.6164H155.542V17.8138H153.233V0.460883L153.232 0.459606ZM155.541 9.45833H159.539C160.516 9.45833 161.31 9.13544 161.924 8.49094C162.553 7.81326 162.867 6.9952 162.867 6.03675C162.867 5.04511 162.553 4.22705 161.924 3.58255C161.295 2.93805 160.499 2.61644 159.539 2.61644H155.541V9.45833ZM180.029 17.8126H177.57L176.155 13.92H168.332L166.917 17.8126H164.458L170.939 0.459606H173.548L180.029 17.8126ZM172.231 3.21244L169.126 11.7645H175.359L172.231 3.21244ZM187.231 18.1354C185.609 18.1354 184.223 17.759 183.072 17.0073C181.921 16.2556 181.114 15.2103 180.65 13.8715L182.637 12.7319C183.3 14.8313 184.848 15.8803 187.281 15.8803C188.456 15.8803 189.363 15.6404 190.001 15.1618C190.639 14.682 190.957 14.0298 190.957 13.2041C190.957 12.3949 190.643 11.7747 190.014 11.3446C189.451 10.9643 188.399 10.5265 186.859 10.0314L185.196 9.48641C184.831 9.33709 184.352 9.12268 183.755 8.84191C183.176 8.54455 182.754 8.24718 182.488 7.94982C181.759 7.156 181.394 6.1899 181.394 5.04894C181.394 3.52895 181.924 2.33822 182.984 1.47932C184.044 0.587232 185.335 0.140547 186.858 0.140547C188.216 0.140547 189.408 0.478752 190.434 1.15643C191.461 1.83411 192.231 2.75938 192.743 3.93224L190.806 5.04767C190.061 3.26349 188.745 2.37013 186.858 2.37013C185.914 2.37013 185.152 2.60113 184.573 3.0644C183.994 3.52767 183.704 4.15558 183.704 4.94812C183.704 5.70876 183.977 6.28689 184.523 6.6838C185.086 7.0973 186.029 7.50952 187.354 7.92302L188.372 8.24591C188.934 8.46032 189.241 8.57645 189.291 8.59304C189.821 8.79086 190.401 9.06397 191.03 9.41111C191.478 9.6587 191.924 10.039 192.371 10.5508C192.951 11.1289 193.241 11.9968 193.241 13.153C193.241 14.673 192.686 15.888 191.577 16.7967C190.452 17.6888 189.002 18.1354 187.231 18.1354ZM200.991 18.1354C199.368 18.1354 197.981 17.759 196.831 17.0073C195.68 16.2556 194.874 15.2103 194.409 13.8715L196.396 12.7319C197.059 14.8313 198.607 15.8803 201.04 15.8803C202.215 15.8803 203.122 15.6404 203.76 15.1618C204.398 14.682 204.716 14.0298 204.716 13.2041C204.716 12.3949 204.402 11.7747 203.773 11.3446C203.21 10.9643 202.158 10.5265 200.618 10.0314L198.955 9.48641C198.591 9.33709 198.111 9.12268 197.514 8.84191C196.935 8.54455 196.513 8.24718 196.247 7.94982C195.518 7.156 195.154 6.1899 195.154 5.04894C195.154 3.52895 195.683 2.33822 196.743 1.47932C197.803 0.587232 199.094 0.140547 200.617 0.140547C201.975 0.140547 203.167 0.478752 204.193 1.15643C205.22 1.83411 205.99 2.75938 206.503 3.93224L204.566 5.04767C203.82 3.26349 202.504 2.37013 200.617 2.37013C199.674 2.37013 198.911 2.60113 198.332 3.0644C197.753 3.52767 197.463 4.15558 197.463 4.94812C197.463 5.70876 197.736 6.28689 198.282 6.6838C198.845 7.0973 199.789 7.50952 201.113 7.92302L202.131 8.24591C202.694 8.46032 203.001 8.57645 203.05 8.59304C203.58 8.79086 204.16 9.06397 204.789 9.41111C205.237 9.6587 205.683 10.039 206.131 10.5508C206.71 11.1289 207 11.9968 207 13.153C207 14.673 206.445 15.888 205.337 16.7967C204.211 17.6888 202.761 18.1354 200.991 18.1354Z" fill="#1560BD"/>
<path d="M103.499 12.2991C105.378 12.2991 106.9 10.7744 106.9 8.89369C106.9 7.01293 105.378 5.48828 103.499 5.48828C101.621 5.48828 100.098 7.01293 100.098 8.89369C100.098 10.7744 101.621 12.2991 103.499 12.2991Z" fill="#E31E24"/>
<path fill-rule="evenodd" clip-rule="evenodd" d="M111.273 1.10938L109.551 5.97424C109.2 5.27375 108.736 4.63657 108.182 4.08885C107.665 3.57552 107.068 3.13927 106.414 2.79935L111.273 1.10938Z" fill="#E31E24"/>
</svg>
