<svg width="17" height="17" viewBox="0 0 17 17" fill="none" xmlns="http://www.w3.org/2000/svg">
<path d="M5.60758 15.6417C5.41134 15.6417 5.20809 15.5927 5.02587 15.4946C4.6264 15.2843 4.38112 14.8638 4.38112 14.4153V13.4202C2.2646 13.2029 0.876953 11.647 0.876953 9.41834V5.21339C0.876953 2.80252 2.49588 1.18359 4.90674 1.18359H11.9151C14.3259 1.18359 15.9449 2.80252 15.9449 5.21339V9.41834C15.9449 11.8292 14.3259 13.4481 11.9151 13.4481H9.27292L6.28737 15.4386C6.08412 15.5717 5.84586 15.6417 5.60758 15.6417ZM4.90674 2.22783C3.09859 2.22783 1.9282 3.39822 1.9282 5.20637V9.41141C1.9282 11.2196 3.09859 12.39 4.90674 12.39C5.19409 12.39 5.43237 12.6282 5.43237 12.9156V14.4084C5.43237 14.4995 5.48844 14.5415 5.52348 14.5625C5.55852 14.5835 5.62861 14.6046 5.70571 14.5555L8.82442 12.4811C8.90852 12.425 9.01363 12.39 9.11876 12.39H11.9221C13.7302 12.39 14.9006 11.2196 14.9006 9.41141V5.20637C14.9006 3.39822 13.7302 2.22783 11.9221 2.22783H4.90674Z" fill="#1560BD"/>
<path d="M8.40969 8.48625C8.12235 8.48625 7.88407 8.24797 7.88407 7.96063V7.81348C7.88407 7.00051 8.47976 6.60103 8.70403 6.44684C8.96334 6.27164 9.04743 6.1525 9.04743 5.97028C9.04743 5.61987 8.76011 5.3325 8.40969 5.3325C8.05928 5.3325 7.77195 5.61987 7.77195 5.97028C7.77195 6.25762 7.53367 6.49591 7.24633 6.49591C6.95899 6.49591 6.7207 6.25762 6.7207 5.97028C6.7207 5.03817 7.47758 4.28125 8.40969 4.28125C9.3418 4.28125 10.0987 5.03817 10.0987 5.97028C10.0987 6.76923 9.51001 7.1687 9.29275 7.31587C9.01942 7.49809 8.93532 7.61724 8.93532 7.81348V7.96063C8.93532 8.25498 8.69703 8.48625 8.40969 8.48625Z" fill="#1560BD"/>
<path d="M8.41039 10.2329C8.11604 10.2329 7.88477 9.99461 7.88477 9.70727C7.88477 9.41992 8.12305 9.18164 8.41039 9.18164C8.69773 9.18164 8.93602 9.41992 8.93602 9.70727C8.93602 9.99461 8.70474 10.2329 8.41039 10.2329Z" fill="#1560BD"/>
</svg>
