<svg width="38" height="38" viewBox="0 0 38 38" fill="none" xmlns="http://www.w3.org/2000/svg">
<path d="M12.5 34.8745C12.0625 34.8745 11.6093 34.7652 11.2031 34.5465C10.3125 34.0777 9.76562 33.1402 9.76562 32.1402V29.9215C5.04688 29.4372 1.95312 25.9683 1.95312 20.9995V11.6246C1.95312 6.24963 5.5625 2.64026 10.9375 2.64026H26.5625C31.9375 2.64026 35.5469 6.24963 35.5469 11.6246V20.9995C35.5469 26.3745 31.9375 29.9839 26.5625 29.9839H20.6718L14.0156 34.4216C13.5625 34.7184 13.0313 34.8745 12.5 34.8745ZM10.9375 4.96837C6.90625 4.96837 4.29688 7.57774 4.29688 11.609V20.9841C4.29688 25.0153 6.90625 27.6247 10.9375 27.6247C11.5781 27.6247 12.1094 28.156 12.1094 28.7966V32.1247C12.1094 32.3278 12.2344 32.4216 12.3125 32.4684C12.3906 32.5153 12.5469 32.5622 12.7188 32.4528L19.6719 27.8278C19.8594 27.7028 20.0938 27.6247 20.3281 27.6247H26.5781C30.6094 27.6247 33.2188 25.0153 33.2188 20.9841V11.609C33.2188 7.57774 30.6094 4.96837 26.5781 4.96837H10.9375V4.96837Z" fill="#1560BD"/>
<path d="M18.75 18.9216C18.1093 18.9216 17.5781 18.3904 17.5781 17.7498V17.4217C17.5781 15.6092 18.9062 14.7185 19.4062 14.3748C19.9843 13.9842 20.1718 13.7186 20.1718 13.3123C20.1718 12.5311 19.5312 11.8904 18.75 11.8904C17.9687 11.8904 17.3281 12.5311 17.3281 13.3123C17.3281 13.9529 16.7969 14.4842 16.1562 14.4842C15.5156 14.4842 14.9844 13.9529 14.9844 13.3123C14.9844 11.2342 16.6718 9.54663 18.75 9.54663C20.8281 9.54663 22.5155 11.2342 22.5155 13.3123C22.5155 15.0936 21.2031 15.9842 20.7187 16.3123C20.1093 16.7185 19.9218 16.9842 19.9218 17.4217V17.7498C19.9218 18.406 19.3906 18.9216 18.75 18.9216Z" fill="#1560BD"/>
<path d="M18.75 22.8123C18.0938 22.8123 17.5781 22.281 17.5781 21.6404C17.5781 20.9998 18.1094 20.4685 18.75 20.4685C19.3906 20.4685 19.9219 20.9998 19.9219 21.6404C19.9219 22.281 19.4062 22.8123 18.75 22.8123Z" fill="#1560BD"/>
</svg>
