<svg width="38" height="38" viewBox="0 0 38 38" fill="none" xmlns="http://www.w3.org/2000/svg">
<path d="M25 35.5469H12.5C7.78125 35.5469 5.07812 32.8437 5.07812 28.125V12.8906C5.07812 7.96875 7.57812 5.46875 12.5 5.46875C13.1406 5.46875 13.6719 6 13.6719 6.64062C13.6719 7.26563 13.9219 7.85937 14.3594 8.29687C14.7969 8.73437 15.3906 8.98438 16.0156 8.98438H21.4844C22.7812 8.98438 23.8281 7.9375 23.8281 6.64062C23.8281 6 24.3594 5.46875 25 5.46875C29.9219 5.46875 32.4219 7.96875 32.4219 12.8906V28.125C32.4219 32.8437 29.7187 35.5469 25 35.5469ZM11.4843 7.84376C9.01559 8.04688 7.42188 9.15625 7.42188 12.8906V28.125C7.42188 31.5938 9.03125 33.2031 12.5 33.2031H25C28.4688 33.2031 30.0781 31.5938 30.0781 28.125V12.8906C30.0781 9.15625 28.4844 8.06251 26.0157 7.84376C25.4844 9.84376 23.6562 11.3281 21.4844 11.3281H16.0156C14.7656 11.3281 13.5938 10.8437 12.7031 9.95312C12.1094 9.35937 11.7031 8.64063 11.4843 7.84376Z" fill="#1560BD"/>
<path d="M21.4844 11.3281H16.0156C14.7656 11.3281 13.5938 10.8437 12.7031 9.95312C11.8125 9.06249 11.3281 7.89063 11.3281 6.64062C11.3281 4.0625 13.4375 1.95312 16.0156 1.95312H21.4844C22.7344 1.95312 23.9062 2.43751 24.7969 3.32813C25.6875 4.21876 26.1719 5.39062 26.1719 6.64062C26.1719 9.21875 24.0625 11.3281 21.4844 11.3281ZM16.0156 4.29688C14.7188 4.29688 13.6719 5.34375 13.6719 6.64062C13.6719 7.26563 13.9219 7.85937 14.3594 8.29687C14.7969 8.73437 15.3906 8.98438 16.0156 8.98438H21.4844C22.7812 8.98438 23.8281 7.9375 23.8281 6.64062C23.8281 6.01562 23.5781 5.42188 23.1406 4.98438C22.7031 4.54688 22.1094 4.29688 21.4844 4.29688H16.0156Z" fill="#1560BD"/>
<path d="M18.75 21.4844H12.5C11.8594 21.4844 11.3281 20.9531 11.3281 20.3125C11.3281 19.6719 11.8594 19.1406 12.5 19.1406H18.75C19.3906 19.1406 19.9219 19.6719 19.9219 20.3125C19.9219 20.9531 19.3906 21.4844 18.75 21.4844Z" fill="#1560BD"/>
<path d="M25 27.7344H12.5C11.8594 27.7344 11.3281 27.2031 11.3281 26.5625C11.3281 25.9219 11.8594 25.3906 12.5 25.3906H25C25.6406 25.3906 26.1719 25.9219 26.1719 26.5625C26.1719 27.2031 25.6406 27.7344 25 27.7344Z" fill="#1560BD"/>
</svg>
