<svg width="32" height="33" viewBox="0 0 32 33" fill="none" xmlns="http://www.w3.org/2000/svg">
<path d="M16 14.9752C15.4533 14.9752 15 14.5218 15 13.9752V9.53516C15 8.98849 15.4533 8.53516 16 8.53516C16.5467 8.53516 17 8.98849 17 9.53516V13.9752C17 14.5352 16.5467 14.9752 16 14.9752Z" fill="#E31E24"/>
<path d="M16.0271 28.0816C12.5871 28.0816 9.16047 27.5349 5.89381 26.4416C4.68047 26.0416 3.76047 25.1749 3.36047 24.0816C2.96047 22.9882 3.09381 21.7349 3.74714 20.6416L5.44047 17.8149C5.81381 17.1882 6.14714 16.0149 6.14714 15.2816V12.4816C6.14714 7.02823 10.5738 2.60156 16.0271 2.60156C21.4805 2.60156 25.9071 7.02823 25.9071 12.4816V15.2816C25.9071 16.0016 26.2405 17.1882 26.6138 17.8149L28.3071 20.6416C28.9338 21.6816 29.0405 22.9216 28.6271 24.0549C28.2138 25.1882 27.3071 26.0549 26.1605 26.4416C22.8938 27.5482 19.4671 28.0816 16.0271 28.0816ZM16.0271 4.6149C11.6805 4.6149 8.14714 8.14823 8.14714 12.4949V15.2949C8.14714 16.3749 7.72047 17.9349 7.16047 18.8549L5.46714 21.6949C5.12047 22.2682 5.04047 22.8816 5.24047 23.4149C5.44047 23.9482 5.89381 24.3482 6.53381 24.5616C12.6671 26.6016 19.4138 26.6016 25.5471 24.5616C26.1205 24.3749 26.5605 23.9482 26.7605 23.3882C26.9738 22.8282 26.9071 22.2149 26.6005 21.6949L24.9071 18.8682C24.3471 17.9482 23.9205 16.3882 23.9205 15.3082V12.5082C23.9071 8.14823 20.3738 4.6149 16.0271 4.6149Z" fill="#E31E24"/>
<path d="M16.0005 31.483C14.5739 31.483 13.1739 30.8963 12.1605 29.883C11.1472 28.8696 10.5605 27.4696 10.5605 26.043H12.5605C12.5605 26.9496 12.9339 27.8296 13.5739 28.4696C14.2139 29.1096 15.0939 29.483 16.0005 29.483C17.8939 29.483 19.4405 27.9363 19.4405 26.043H21.4405C21.4405 29.043 19.0005 31.483 16.0005 31.483Z" fill="#E31E24"/>
</svg>
