<svg width="32" height="33" viewBox="0 0 32 33" fill="none" xmlns="http://www.w3.org/2000/svg">
<path d="M16 14.5267C15.4533 14.5267 15 14.0733 15 13.5267V9.08667C15 8.54 15.4533 8.08667 16 8.08667C16.5467 8.08667 17 8.54 17 9.08667V13.5267C17 14.0867 16.5467 14.5267 16 14.5267Z" fill="#E31E24"/>
<path d="M16.0267 27.6333C12.5867 27.6333 9.15999 27.0867 5.89332 25.9933C4.67999 25.5933 3.75999 24.7267 3.35999 23.6333C2.95999 22.54 3.09332 21.2867 3.74665 20.1933L5.43999 17.3667C5.81332 16.74 6.14665 15.5667 6.14665 14.8333V12.0333C6.14665 6.57999 10.5733 2.15332 16.0267 2.15332C21.48 2.15332 25.9067 6.57999 25.9067 12.0333V14.8333C25.9067 15.5533 26.24 16.74 26.6133 17.3667L28.3067 20.1933C28.9333 21.2333 29.04 22.4733 28.6267 23.6067C28.2133 24.74 27.3067 25.6067 26.16 25.9933C22.8933 27.1 19.4667 27.6333 16.0267 27.6333ZM16.0267 4.16665C11.68 4.16665 8.14665 7.69999 8.14665 12.0467V14.8467C8.14665 15.9267 7.71999 17.4867 7.15999 18.4067L5.46665 21.2467C5.11999 21.82 5.03999 22.4333 5.23999 22.9667C5.43999 23.5 5.89332 23.9 6.53332 24.1133C12.6667 26.1533 19.4133 26.1533 25.5467 24.1133C26.12 23.9267 26.56 23.5 26.76 22.94C26.9733 22.38 26.9067 21.7667 26.6 21.2467L24.9067 18.42C24.3467 17.5 23.92 15.94 23.92 14.86V12.06C23.9067 7.69999 20.3733 4.16665 16.0267 4.16665Z" fill="#E31E24"/>
<path d="M16 31.0333C14.5733 31.0333 13.1733 30.4467 12.16 29.4333C11.1467 28.42 10.56 27.02 10.56 25.5933H12.56C12.56 26.5 12.9333 27.38 13.5733 28.02C14.2133 28.66 15.0933 29.0333 16 29.0333C17.8933 29.0333 19.44 27.4867 19.44 25.5933H21.44C21.44 28.5933 19 31.0333 16 31.0333Z" fill="#E31E24"/>
</svg>
