<svg width="17" height="17" viewBox="0 0 17 17" fill="none" xmlns="http://www.w3.org/2000/svg">
<path d="M8.5 16.0748C3.81116 16.0748 0 12.471 0 8.03739C0 3.60374 3.81116 0 8.5 0C13.1888 0 17 3.60374 17 8.03739C17 12.471 13.1888 16.0748 8.5 16.0748ZM8.5 1.1215C4.46744 1.1215 1.18605 4.2243 1.18605 8.03739C1.18605 11.8505 4.46744 14.9533 8.5 14.9533C12.5326 14.9533 15.814 11.8505 15.814 8.03739C15.814 4.2243 12.5326 1.1215 8.5 1.1215Z" fill="#1560BD"/>
<path d="M8.73266 10.5676C8.57452 10.5676 8.44011 10.5162 8.32941 10.4134C8.22662 10.3106 8.17522 10.1762 8.17522 10.0102C8.17522 9.70181 8.25429 9.36576 8.41243 9.00204C8.57057 8.63041 8.80383 8.30623 9.1122 8.02948C9.3415 7.83181 9.55499 7.63414 9.75266 7.43646C9.95825 7.23879 10.1203 7.01739 10.2389 6.77227C10.3655 6.51925 10.4287 6.21088 10.4287 5.84716C10.4287 5.57041 10.3615 5.31344 10.2271 5.07623C10.1006 4.83902 9.91871 4.64925 9.6815 4.50693C9.44429 4.3646 9.15569 4.29344 8.81569 4.29344C8.42825 4.29344 8.10011 4.36855 7.83127 4.51879C7.57034 4.66902 7.37266 4.87855 7.23824 5.14739C7.10383 5.40832 7.03662 5.71669 7.03662 6.07251C7.03662 6.23065 6.98522 6.36111 6.88243 6.4639C6.77964 6.56669 6.64918 6.61809 6.49104 6.61809C6.3329 6.61809 6.19848 6.56669 6.08778 6.4639C5.98499 6.36111 5.93359 6.23065 5.93359 6.07251C5.93359 5.51902 6.0522 5.03669 6.28941 4.62553C6.53452 4.20646 6.87057 3.87832 7.29755 3.64111C7.73243 3.396 8.23848 3.27344 8.81569 3.27344C9.33755 3.27344 9.80011 3.38414 10.2034 3.60553C10.6066 3.82693 10.9229 4.13134 11.1522 4.51879C11.3894 4.90623 11.508 5.35297 11.508 5.85902C11.508 6.30181 11.4329 6.6853 11.2827 7.00948C11.1403 7.32576 10.9427 7.61437 10.6896 7.8753C10.4445 8.12832 10.1638 8.3853 9.84755 8.64623C9.62615 8.836 9.47592 9.0653 9.39685 9.33414C9.31778 9.60297 9.27825 9.82832 9.27825 10.0102C9.27825 10.1762 9.22685 10.3106 9.12406 10.4134C9.02127 10.5162 8.8908 10.5676 8.73266 10.5676ZM8.73266 12.7262C8.51918 12.7262 8.33731 12.6511 8.18708 12.5009C8.03685 12.3506 7.96173 12.1688 7.96173 11.9553C7.96173 11.7418 8.03685 11.5599 8.18708 11.4097C8.33731 11.2516 8.51918 11.1725 8.73266 11.1725C8.94615 11.1725 9.12801 11.2516 9.27825 11.4097C9.42848 11.5599 9.50359 11.7418 9.50359 11.9553C9.50359 12.1688 9.42848 12.3506 9.27825 12.5009C9.12801 12.6511 8.94615 12.7262 8.73266 12.7262Z" fill="#1560BD"/>
</svg>
