<svg width="18" height="18" viewBox="0 0 18 18" fill="none" xmlns="http://www.w3.org/2000/svg">
<path d="M16.2982 17.7124C16.6917 18.1 17.3248 18.0952 17.7124 17.7018C18.1 17.3083 18.0952 16.6752 17.7018 16.2876L16.2982 17.7124ZM14.881 8.32957C14.881 11.8112 12.0117 14.6591 8.44049 14.6591V16.6591C13.0878 16.6591 16.881 12.944 16.881 8.32957H14.881ZM8.44049 14.6591C4.86929 14.6591 2 11.8112 2 8.32957H0C0 12.944 3.79315 16.6591 8.44049 16.6591V14.6591ZM2 8.32957C2 4.84795 4.86929 2 8.44049 2V0C3.79315 0 0 3.71517 0 8.32957H2ZM8.44049 2C12.0117 2 14.881 4.84795 14.881 8.32957H16.881C16.881 3.71517 13.0878 0 8.44049 0V2ZM12.8775 14.3426L16.2982 17.7124L17.7018 16.2876L14.281 12.9179L12.8775 14.3426Z" fill="#494949"/>
</svg>
