<svg width="21" height="21" viewBox="0 0 21 21" fill="none" xmlns="http://www.w3.org/2000/svg">
<path d="M19.2293 20.0506C19.6229 20.438 20.2561 20.433 20.6435 20.0393C21.0309 19.6457 21.0258 19.0126 20.6322 18.6252L19.2293 20.0506ZM17.6707 9.58365C17.6707 13.5704 14.3824 16.8294 10.2924 16.8294V18.8294C15.4568 18.8294 19.6707 14.7049 19.6707 9.58365H17.6707ZM10.2924 16.8294C6.20235 16.8294 2.91406 13.5704 2.91406 9.58365H0.914062C0.914062 14.7049 5.12797 18.8294 10.2924 18.8294V16.8294ZM2.91406 9.58365C2.91406 5.5969 6.20235 2.33789 10.2924 2.33789V0.337891C5.12797 0.337891 0.914062 4.46239 0.914062 9.58365H2.91406ZM10.2924 2.33789C14.3824 2.33789 17.6707 5.5969 17.6707 9.58365H19.6707C19.6707 4.46239 15.4568 0.337891 10.2924 0.337891V2.33789ZM15.3774 16.2596L19.2293 20.0506L20.6322 18.6252L16.7803 14.8342L15.3774 16.2596Z" fill="#494949"/>
</svg>
