<svg width="38" height="38" viewBox="0 0 38 38" fill="none" xmlns="http://www.w3.org/2000/svg">
<path d="M29.6875 35.5469C29.0469 35.5469 28.5156 35.0156 28.5156 34.375V17.1875C28.5156 16.5469 29.0469 16.0156 29.6875 16.0156C30.3281 16.0156 30.8594 16.5469 30.8594 17.1875V34.375C30.8594 35.0156 30.3281 35.5469 29.6875 35.5469Z" fill="#1560BD"/>
<path d="M29.6875 12.1094C29.0469 12.1094 28.5156 11.5781 28.5156 10.9375V3.125C28.5156 2.48438 29.0469 1.95312 29.6875 1.95312C30.3281 1.95312 30.8594 2.48438 30.8594 3.125V10.9375C30.8594 11.5781 30.3281 12.1094 29.6875 12.1094Z" fill="#1560BD"/>
<path d="M18.75 35.5469C18.1094 35.5469 17.5781 35.0156 17.5781 34.375V26.5625C17.5781 25.9219 18.1094 25.3906 18.75 25.3906C19.3906 25.3906 19.9219 25.9219 19.9219 26.5625V34.375C19.9219 35.0156 19.3906 35.5469 18.75 35.5469Z" fill="#1560BD"/>
<path d="M18.75 21.4844C18.1094 21.4844 17.5781 20.9531 17.5781 20.3125V3.125C17.5781 2.48438 18.1094 1.95312 18.75 1.95312C19.3906 1.95312 19.9219 2.48438 19.9219 3.125V20.3125C19.9219 20.9531 19.3906 21.4844 18.75 21.4844Z" fill="#1560BD"/>
<path d="M7.8125 35.5469C7.17188 35.5469 6.64062 35.0156 6.64062 34.375V17.1875C6.64062 16.5469 7.17188 16.0156 7.8125 16.0156C8.45312 16.0156 8.98438 16.5469 8.98438 17.1875V34.375C8.98438 35.0156 8.45312 35.5469 7.8125 35.5469Z" fill="#1560BD"/>
<path d="M7.8125 12.1094C7.17188 12.1094 6.64062 11.5781 6.64062 10.9375V3.125C6.64062 2.48438 7.17188 1.95312 7.8125 1.95312C8.45312 1.95312 8.98438 2.48438 8.98438 3.125V10.9375C8.98438 11.5781 8.45312 12.1094 7.8125 12.1094Z" fill="#1560BD"/>
<path d="M10.9375 18.3594H4.6875C4.04688 18.3594 3.51562 17.8281 3.51562 17.1875C3.51562 16.5469 4.04688 16.0156 4.6875 16.0156H10.9375C11.5781 16.0156 12.1094 16.5469 12.1094 17.1875C12.1094 17.8281 11.5781 18.3594 10.9375 18.3594Z" fill="#1560BD"/>
<path d="M32.8125 18.3594H26.5625C25.9219 18.3594 25.3906 17.8281 25.3906 17.1875C25.3906 16.5469 25.9219 16.0156 26.5625 16.0156H32.8125C33.4531 16.0156 33.9844 16.5469 33.9844 17.1875C33.9844 17.8281 33.4531 18.3594 32.8125 18.3594Z" fill="#1560BD"/>
<path d="M21.875 21.4844H15.625C14.9844 21.4844 14.4531 20.9531 14.4531 20.3125C14.4531 19.6719 14.9844 19.1406 15.625 19.1406H21.875C22.5156 19.1406 23.0469 19.6719 23.0469 20.3125C23.0469 20.9531 22.5156 21.4844 21.875 21.4844Z" fill="#1560BD"/>
</svg>
