<svg width="38" height="38" viewBox="0 0 38 38" fill="none" xmlns="http://www.w3.org/2000/svg">
<path d="M21.875 10.7969H15.625C14.125 10.7969 11.3281 10.7969 11.3281 6.5C11.3281 2.20312 14.125 2.20312 15.625 2.20312H21.875C23.375 2.20312 26.1719 2.20312 26.1719 6.5C26.1719 8 26.1719 10.7969 21.875 10.7969ZM15.625 4.54688C14.0781 4.54688 13.6719 4.54688 13.6719 6.5C13.6719 8.45312 14.0781 8.45312 15.625 8.45312H21.875C23.8281 8.45312 23.8281 8.04688 23.8281 6.5C23.8281 4.54688 23.4219 4.54688 21.875 4.54688H15.625Z" fill="#1560BD"/>
<path d="M21.875 35.7983H14.0625C5.28125 35.7983 3.51562 31.7671 3.51562 25.2514V15.8764C3.51562 8.75143 6.09375 5.70456 12.4375 5.37643C13.0625 5.34518 13.6406 5.82956 13.6719 6.48581C13.7031 7.14206 13.2031 7.67331 12.5625 7.70456C8.125 7.95456 5.85938 9.28268 5.85938 15.8764V25.2514C5.85938 31.0327 7 33.4546 14.0625 33.4546H21.875C22.5156 33.4546 23.0469 33.9858 23.0469 34.6264C23.0469 35.2671 22.5156 35.7983 21.875 35.7983Z" fill="#1560BD"/>
<path d="M32.8139 24.8608C32.1733 24.8608 31.642 24.3295 31.642 23.6889V15.8764C31.642 9.28264 29.3764 7.95451 24.9389 7.70451C24.2983 7.67326 23.7983 7.11076 23.8295 6.47014C23.8608 5.82951 24.4389 5.32951 25.0639 5.36076C31.4076 5.70451 33.9858 8.75139 33.9858 15.8608V23.6733C33.9858 24.3295 33.4545 24.8608 32.8139 24.8608Z" fill="#1560BD"/>
<path d="M32.8125 35.7969H28.125C27.4844 35.7969 26.9531 35.2656 26.9531 34.625C26.9531 33.9844 27.4844 33.4531 28.125 33.4531H31.6406V29.9375C31.6406 29.2969 32.1719 28.7656 32.8125 28.7656C33.4531 28.7656 33.9844 29.2969 33.9844 29.9375V34.625C33.9844 35.2656 33.4531 35.7969 32.8125 35.7969Z" fill="#1560BD"/>
<path d="M32.75 35.7344C32.4531 35.7344 32.1563 35.625 31.9219 35.3906L22.6094 26.0781C22.1563 25.625 22.1563 24.875 22.6094 24.4219C23.0625 23.9688 23.8125 23.9688 24.2656 24.4219L33.5781 33.7344C34.0312 34.1875 34.0312 34.9375 33.5781 35.3906C33.3438 35.6094 33.0469 35.7344 32.75 35.7344Z" fill="#1560BD"/>
</svg>
