<svg width="38" height="38" viewBox="0 0 38 38" fill="none" xmlns="http://www.w3.org/2000/svg">
<path d="M26.9167 36.0208H11.0834C4.10085 36.0208 1.97919 33.8992 1.97919 26.9167V23.75C1.97919 16.7675 4.10085 14.6458 11.0834 14.6458H26.9167C33.8992 14.6458 36.0209 16.7675 36.0209 23.75V26.9167C36.0209 33.8992 33.8992 36.0208 26.9167 36.0208ZM11.0834 17.0208C5.41502 17.0208 4.35419 18.0975 4.35419 23.75V26.9167C4.35419 32.5692 5.41502 33.6458 11.0834 33.6458H26.9167C32.585 33.6458 33.6459 32.5692 33.6459 26.9167V23.75C33.6459 18.0975 32.585 17.0208 26.9167 17.0208H11.0834Z" fill="#D9D9D9"/>
<path d="M9.5 17.0208C8.85083 17.0208 8.3125 16.4825 8.3125 15.8333V12.6667C8.3125 8.07499 9.42083 1.97916 19 1.97916C26.0933 1.97916 29.6875 5.03499 29.6875 11.0833C29.6875 11.7325 29.1492 12.2708 28.5 12.2708C27.8508 12.2708 27.3125 11.7325 27.3125 11.0833C27.3125 7.94832 26.3625 4.35416 19 4.35416C12.0967 4.35416 10.6875 7.67916 10.6875 12.6667V15.8333C10.6875 16.4825 10.1492 17.0208 9.5 17.0208Z" fill="#D9D9D9"/>
<path d="M19 30.4792C16.1659 30.4792 13.8542 28.1675 13.8542 25.3333C13.8542 22.4992 16.1659 20.1875 19 20.1875C21.8342 20.1875 24.1459 22.4992 24.1459 25.3333C24.1459 28.1675 21.8342 30.4792 19 30.4792ZM19 22.5625C17.48 22.5625 16.2292 23.8133 16.2292 25.3333C16.2292 26.8533 17.48 28.1042 19 28.1042C20.52 28.1042 21.7709 26.8533 21.7709 25.3333C21.7709 23.8133 20.52 22.5625 19 22.5625Z" fill="#D9D9D9"/>
</svg>
